<?xml version="1.0" encoding="utf-8"?>
<!-- Generator: Adobe Illustrator 25.0.0, SVG Export Plug-In . SVG Version: 6.00 Build 0)  -->
<svg version="1.1" id="レイヤー_1" xmlns="http://www.w3.org/2000/svg" xmlns:xlink="http://www.w3.org/1999/xlink" x="0px"
	 y="0px" viewBox="0 0 102 72" style="enable-background:new 0 0 102 72;" xml:space="preserve">
<style type="text/css">
	.st0{enable-background:new    ;}
	.st1{fill:#666666;}
</style>
<g id="footer-logo" transform="translate(-191 -9451)">
	<g class="st0">
		<path class="st1" d="M194.8,9508.1c0-0.1,0.4-0.2,1.3-0.2c0.2,0,0.3,0,0.5,0l-0.5,2.2h1.7c0.1,0,0.1,0.1,0.1,0.3
			c0,0.2-0.1,0.5-0.2,0.7h-1.8l-0.9,4.8c0,0.1-0.1,0.3-0.1,0.4c0,0.3,0.1,0.5,0.2,0.5c0.1,0,0.3-0.1,0.5-0.2
			c0.2-0.2,0.4-0.3,0.5-0.5c0.1-0.1,0.2-0.2,0.3-0.3c0,0,0.1,0.1,0.2,0.2c0.1,0.1,0.1,0.2,0.1,0.3c-0.1,0.3-0.5,0.7-1.2,1.2
			c-0.6,0.5-1.2,0.8-1.6,0.8c-0.2,0-0.4-0.1-0.6-0.3c-0.2-0.2-0.2-0.4-0.2-0.8c0-0.3,0.1-0.7,0.2-1.2l0.9-4.9H193
			c0,0-0.1-0.1-0.1-0.2c0-0.1,0-0.3,0.1-0.4s0.1-0.2,0.2-0.3h1.2L194.8,9508.1z"/>
		<path class="st1" d="M203.4,9509.8c0.6,0,1.1,0.1,1.5,0.3l-1.1,5.7c0,0.1-0.1,0.3-0.1,0.4c0,0.3,0.1,0.5,0.2,0.5
			c0.1,0,0.3-0.1,0.5-0.2c0.2-0.2,0.4-0.3,0.5-0.5c0.1-0.1,0.2-0.2,0.3-0.3c0,0,0.1,0.1,0.2,0.2c0.1,0.1,0.1,0.2,0.1,0.3
			c-0.1,0.3-0.5,0.7-1.2,1.2c-0.6,0.5-1.2,0.8-1.6,0.8c-0.2,0-0.4-0.1-0.6-0.3c-0.2-0.2-0.2-0.4-0.2-0.7c0-0.1,0-0.3,0.1-0.6
			c0-0.2,0.1-0.3,0.1-0.4c-0.1,0.2-0.2,0.4-0.4,0.6c-0.1,0.2-0.3,0.4-0.5,0.6c-0.2,0.2-0.4,0.4-0.7,0.5c-0.3,0.1-0.5,0.2-0.8,0.2
			c-0.6,0-1.1-0.2-1.4-0.7c-0.4-0.5-0.5-1.1-0.5-1.9c0-0.9,0.3-1.7,0.8-2.6c0.5-0.9,1.2-1.6,2.1-2.2
			C201.5,9510.1,202.4,9509.8,203.4,9509.8z M202.4,9510.8c-0.7,0-1.4,0.5-1.9,1.6c-0.6,1.1-0.9,2.1-0.9,3c0,1,0.3,1.4,0.8,1.4
			c0.4,0,0.9-0.4,1.3-1.3c0.5-0.9,0.8-1.8,1-2.8l0.4-1.8C202.9,9510.9,202.7,9510.8,202.4,9510.8z"/>
		<path class="st1" d="M209,9509.8c0.2,0,0.4,0.1,0.6,0.3c0.1,0.2,0.2,0.4,0.2,0.7c0,0.3,0,0.7-0.1,1c-0.1,0.8-0.2,1.2-0.2,1.2
			c0.3-0.8,0.8-1.5,1.4-2.2s1.1-1,1.6-1c0.4,0,0.8,0.2,1.1,0.7c0,1-0.3,1.5-0.9,1.5c-0.1,0-0.3-0.1-0.5-0.3
			c-0.2-0.2-0.4-0.3-0.5-0.3c-0.2,0-0.5,0.3-0.9,0.8c-0.4,0.5-0.8,1.1-1.1,1.9c-0.4,0.8-0.6,1.5-0.7,2.2l-0.3,1.8
			c-0.3,0-0.6,0.1-0.8,0.1c-0.3,0-0.6,0-0.9-0.1l1.1-5.8c0-0.3,0.1-0.5,0.1-0.6c0-0.3-0.1-0.4-0.2-0.4c-0.1,0-0.4,0.1-0.6,0.4
			c-0.3,0.2-0.5,0.4-0.6,0.6c0,0-0.1-0.1-0.2-0.2c-0.1-0.1-0.1-0.2-0.1-0.3c0.1-0.3,0.5-0.7,1.1-1.2
			C208.1,9510,208.6,9509.8,209,9509.8z"/>
		<path class="st1" d="M215.8,9508.1c0-0.1,0.4-0.2,1.3-0.2c0.2,0,0.3,0,0.5,0l-0.5,2.2h1.7c0.1,0,0.1,0.1,0.1,0.3
			c0,0.2-0.1,0.5-0.2,0.7h-1.8l-0.9,4.8c0,0.1-0.1,0.3-0.1,0.4c0,0.3,0.1,0.5,0.2,0.5c0.1,0,0.3-0.1,0.5-0.2
			c0.2-0.2,0.4-0.3,0.5-0.5c0.1-0.1,0.2-0.2,0.3-0.3c0,0,0.1,0.1,0.2,0.2c0.1,0.1,0.1,0.2,0.1,0.3c-0.1,0.3-0.5,0.7-1.2,1.2
			c-0.6,0.5-1.2,0.8-1.6,0.8c-0.2,0-0.4-0.1-0.6-0.3c-0.2-0.2-0.2-0.4-0.2-0.8c0-0.3,0.1-0.7,0.2-1.2l0.9-4.9H214
			c0,0-0.1-0.1-0.1-0.2c0-0.1,0-0.3,0.1-0.4s0.1-0.2,0.2-0.3h1.2L215.8,9508.1z"/>
		<path class="st1" d="M224.4,9509.8c0.6,0,1.1,0.1,1.5,0.3l-1.1,5.7c0,0.1-0.1,0.3-0.1,0.4c0,0.3,0.1,0.5,0.2,0.5
			c0.1,0,0.3-0.1,0.5-0.2c0.2-0.2,0.4-0.3,0.5-0.5c0.1-0.1,0.2-0.2,0.3-0.3c0,0,0.1,0.1,0.2,0.2c0.1,0.1,0.1,0.2,0.1,0.3
			c-0.1,0.3-0.5,0.7-1.2,1.2c-0.6,0.5-1.2,0.8-1.6,0.8c-0.2,0-0.4-0.1-0.6-0.3c-0.2-0.2-0.2-0.4-0.2-0.7c0-0.1,0-0.3,0.1-0.6
			c0-0.2,0.1-0.3,0.1-0.4c-0.1,0.2-0.2,0.4-0.4,0.6c-0.1,0.2-0.3,0.4-0.5,0.6c-0.2,0.2-0.4,0.4-0.7,0.5c-0.3,0.1-0.5,0.2-0.8,0.2
			c-0.6,0-1.1-0.2-1.4-0.7c-0.4-0.5-0.5-1.1-0.5-1.9c0-0.9,0.3-1.7,0.8-2.6c0.5-0.9,1.2-1.6,2.1-2.2
			C222.5,9510.1,223.4,9509.8,224.4,9509.8z M223.4,9510.8c-0.7,0-1.4,0.5-1.9,1.6c-0.6,1.1-0.9,2.1-0.9,3c0,1,0.3,1.4,0.8,1.4
			c0.4,0,0.9-0.4,1.3-1.3c0.5-0.9,0.8-1.8,1-2.8l0.4-1.8C223.9,9510.9,223.7,9510.8,223.4,9510.8z"/>
		<path class="st1" d="M230,9509.8c0.2,0,0.4,0.1,0.6,0.3c0.1,0.2,0.2,0.4,0.2,0.7c0,0.3,0,0.7-0.1,1c-0.1,0.8-0.2,1.2-0.2,1.2
			c0.3-0.8,0.8-1.5,1.4-2.2s1.1-1,1.6-1c0.4,0,0.8,0.2,1.1,0.7c0,1-0.3,1.5-0.9,1.5c-0.1,0-0.3-0.1-0.5-0.3
			c-0.2-0.2-0.4-0.3-0.5-0.3c-0.2,0-0.5,0.3-0.9,0.8c-0.4,0.5-0.8,1.1-1.1,1.9c-0.4,0.8-0.6,1.5-0.7,2.2l-0.3,1.8
			c-0.3,0-0.6,0.1-0.8,0.1c-0.3,0-0.6,0-0.9-0.1l1.1-5.8c0-0.3,0.1-0.5,0.1-0.6c0-0.3-0.1-0.4-0.2-0.4c-0.1,0-0.4,0.1-0.6,0.4
			c-0.3,0.2-0.5,0.4-0.6,0.6c0,0-0.1-0.1-0.2-0.2c-0.1-0.1-0.1-0.2-0.1-0.3c0.1-0.3,0.5-0.7,1.1-1.2
			C229.1,9510,229.6,9509.8,230,9509.8z"/>
		<path class="st1" d="M237.4,9509.8c0.2,0,0.4,0.1,0.6,0.3c0.1,0.2,0.2,0.4,0.2,0.7c0,0.4,0,0.8-0.1,1.2l-0.5,2.6
			c-0.1,0.5-0.1,0.9-0.1,1c0,0.5,0.1,0.8,0.4,0.8c0.2,0,0.5-0.2,0.9-0.8c0.4-0.5,0.8-1.1,1.1-1.9c0.4-0.8,0.6-1.5,0.8-2.2l0.4-1.7
			c0.2-0.1,0.5-0.1,0.8-0.1c0.3,0,0.6,0,0.9,0.1l-1.1,5.9c0,0.1,0,0.3,0,0.4c0,0.3,0.1,0.5,0.2,0.5c0.1,0,0.3-0.1,0.5-0.2
			c0.2-0.2,0.4-0.3,0.5-0.5c0.1-0.1,0.2-0.2,0.3-0.3c0,0,0.1,0.1,0.2,0.2c0.1,0.1,0.1,0.2,0.1,0.3c-0.1,0.3-0.5,0.7-1.2,1.2
			c-0.6,0.5-1.2,0.8-1.6,0.8c-0.2,0-0.4-0.1-0.6-0.3c-0.1-0.2-0.2-0.4-0.2-0.8c0-0.2,0-0.6,0.1-1.1c0,0,0-0.1,0-0.2
			c0-0.1,0-0.2,0.1-0.4c0-0.2,0.1-0.3,0.1-0.6c-0.2,0.3-0.4,0.7-0.8,1.2c-0.3,0.5-0.7,0.9-1.2,1.4c-0.5,0.4-0.9,0.6-1.2,0.6
			c-0.8,0-1.3-0.5-1.3-1.6c0-0.5,0.1-1.1,0.3-2l0.4-2.3c0-0.2,0.1-0.4,0.1-0.6c0-0.3-0.1-0.4-0.2-0.4c-0.1,0-0.4,0.1-0.6,0.4
			c-0.3,0.2-0.5,0.4-0.6,0.6c0,0-0.1-0.1-0.2-0.2c-0.1-0.1-0.1-0.2-0.1-0.3c0.1-0.3,0.5-0.7,1.1-1.2
			C236.4,9510,236.9,9509.8,237.4,9509.8z"/>
		<path class="st1" d="M248.4,9509.8c0.3,0,0.7,0.1,1.2,0.2c0.4,0.2,0.9,0.2,1.3,0.2h0.9c0.1,0,0.1,0.1,0.1,0.2c0,0.3,0,0.5-0.2,0.6
			h-1c-0.1,0-0.1,0-0.1,0.1c0,0,0,0.1,0,0.2c0,0.1,0,0.2,0,0.4c0,0.1,0,0.3,0,0.4c0,0.4-0.1,0.8-0.2,1.2c-0.1,0.4-0.3,0.7-0.5,0.9
			c-0.2,0.3-0.4,0.5-0.5,0.6c-0.2,0.1-0.3,0.3-0.5,0.4c-0.2,0.1-0.5,0.3-0.9,0.4c-0.4,0.2-0.8,0.3-1,0.5c-0.3,0.1-0.4,0.3-0.4,0.4
			c0,0.1,0.1,0.2,0.4,0.3c0.3,0.1,0.6,0.2,1,0.3c0.4,0.1,0.8,0.2,1.1,0.4s0.7,0.4,0.9,0.6s0.4,0.6,0.4,1c0,0.8-0.4,1.5-1.2,2.1
			c-0.8,0.6-1.9,0.9-3.3,0.9c-0.9,0-1.6-0.2-2.1-0.5c-0.6-0.4-0.8-0.8-0.8-1.3c0-0.8,0.8-1.6,2.4-2.1c-0.1,0-0.3-0.1-0.5-0.2
			c-0.3-0.2-0.5-0.5-0.5-0.7c0-0.2,0.2-0.5,0.6-0.7c0.4-0.3,0.9-0.5,1.4-0.7c-0.5-0.1-0.9-0.3-1.3-0.8c-0.4-0.4-0.5-0.9-0.5-1.5
			c0-1,0.4-1.9,1.1-2.6C246.5,9510.2,247.4,9509.8,248.4,9509.8z M248.8,9520c0-0.6-0.9-1.1-2.6-1.5c-0.2,0.1-0.4,0.2-0.5,0.2
			c-0.1,0.1-0.3,0.2-0.5,0.3c-0.2,0.1-0.3,0.3-0.4,0.4c-0.1,0.2-0.1,0.3-0.1,0.5c0,0.9,0.7,1.4,2.1,1.4c0.7,0,1.2-0.1,1.5-0.4
			C248.6,9520.7,248.8,9520.4,248.8,9520z M248,9510.7c-0.3,0-0.6,0.2-0.9,0.5c-0.2,0.3-0.4,0.7-0.5,1.2s-0.2,0.9-0.2,1.3
			c0,0.4,0.1,0.7,0.2,1c0.2,0.2,0.4,0.4,0.7,0.4c0.3,0,0.6-0.2,0.9-0.5c0.2-0.3,0.4-0.7,0.5-1.1c0.1-0.4,0.2-0.8,0.2-1.2
			c0-0.4-0.1-0.8-0.2-1.1C248.5,9510.9,248.3,9510.7,248,9510.7z"/>
		<path class="st1" d="M257.7,9509.8c0.6,0,1.1,0.1,1.5,0.3l-1.1,5.7c0,0.1-0.1,0.3-0.1,0.4c0,0.3,0.1,0.5,0.2,0.5
			c0.1,0,0.3-0.1,0.5-0.2c0.2-0.2,0.4-0.3,0.5-0.5c0.1-0.1,0.2-0.2,0.3-0.3c0,0,0.1,0.1,0.2,0.2c0.1,0.1,0.1,0.2,0.1,0.3
			c-0.1,0.3-0.5,0.7-1.2,1.2c-0.6,0.5-1.2,0.8-1.6,0.8c-0.2,0-0.4-0.1-0.6-0.3c-0.2-0.2-0.2-0.4-0.2-0.7c0-0.1,0-0.3,0.1-0.6
			c0-0.2,0.1-0.3,0.1-0.4c-0.1,0.2-0.2,0.4-0.4,0.6c-0.1,0.2-0.3,0.4-0.5,0.6c-0.2,0.2-0.4,0.4-0.7,0.5c-0.3,0.1-0.5,0.2-0.8,0.2
			c-0.6,0-1.1-0.2-1.4-0.7c-0.4-0.5-0.5-1.1-0.5-1.9c0-0.9,0.3-1.7,0.8-2.6c0.5-0.9,1.2-1.6,2.1-2.2
			C255.8,9510.1,256.7,9509.8,257.7,9509.8z M256.8,9510.8c-0.7,0-1.4,0.5-1.9,1.6c-0.6,1.1-0.9,2.1-0.9,3c0,1,0.3,1.4,0.8,1.4
			c0.4,0,0.9-0.4,1.3-1.3c0.5-0.9,0.8-1.8,1-2.8l0.4-1.8C257.3,9510.9,257.1,9510.8,256.8,9510.8z"/>
		<path class="st1" d="M269.7,9509.8c0.9,0,1.4,0.6,1.4,1.9c0,0.1-0.1,0.5-0.2,1.1c0.4-0.7,0.9-1.3,1.5-2c0.6-0.7,1.2-1,1.6-1
			c0.9,0,1.3,0.5,1.3,1.6c0,0.4-0.1,1.1-0.3,2l-0.5,2.4c0,0.1,0,0.3,0,0.4c0,0.3,0.1,0.5,0.2,0.5c0.1,0,0.3-0.1,0.5-0.2
			c0.2-0.2,0.4-0.3,0.5-0.5c0.1-0.1,0.2-0.2,0.3-0.3c0,0,0.1,0.1,0.2,0.2c0.1,0.1,0.1,0.2,0.1,0.3c-0.1,0.3-0.5,0.7-1.2,1.2
			c-0.6,0.5-1.2,0.8-1.6,0.8c-0.2,0-0.4-0.1-0.6-0.3c-0.1-0.2-0.2-0.4-0.2-0.8c0-0.2,0-0.6,0.1-1.2l0.5-2.6c0.1-0.5,0.2-0.9,0.2-1
			c0-0.3,0-0.5-0.1-0.6c-0.1-0.1-0.2-0.2-0.4-0.2c-0.4,0-0.9,0.5-1.5,1.6c-0.7,1.1-1.1,2.1-1.3,3l-0.4,1.9c-0.3,0-0.6,0.1-0.9,0.1
			c-0.3,0-0.6,0-0.9-0.1l1-4.9c0.1-0.4,0.1-0.7,0.1-0.9c0-0.5-0.2-0.7-0.5-0.7c-0.2,0-0.6,0.3-1,0.8c-0.4,0.5-0.8,1.2-1.1,1.9
			c-0.4,0.7-0.6,1.4-0.7,2l-0.4,1.8c-0.3,0.1-0.6,0.1-0.8,0.1c-0.3,0-0.5,0-0.9-0.1l1.1-5.8c0-0.3,0.1-0.5,0.1-0.6
			c0-0.3-0.1-0.4-0.2-0.4c-0.1,0-0.4,0.1-0.6,0.4c-0.3,0.2-0.5,0.4-0.6,0.6c0,0-0.1-0.1-0.2-0.2c-0.1-0.1-0.1-0.2-0.1-0.3
			c0.1-0.3,0.5-0.7,1.1-1.2c0.6-0.5,1.1-0.7,1.5-0.7c0.2,0,0.4,0.1,0.6,0.3c0.2,0.2,0.2,0.4,0.2,0.7c0,0.2,0,0.6-0.1,1.1l-0.2,1.1
			c0.4-0.7,0.9-1.4,1.5-2.1C268.7,9510.2,269.3,9509.8,269.7,9509.8z"/>
		<path class="st1" d="M281.1,9509.8c0.6,0,1.1,0.2,1.4,0.5c0.4,0.3,0.5,0.7,0.5,1.1c0,0.6-0.3,1.1-0.9,1.7
			c-0.6,0.5-1.2,0.9-1.9,1.2c-0.7,0.3-1.2,0.4-1.6,0.4c0,0-0.1,0.1-0.1,0.4c0,1.2,0.4,1.8,1.2,1.8c0.3,0,0.6-0.1,0.9-0.3
			c0.3-0.2,0.5-0.3,0.6-0.5c0.1-0.1,0.2-0.2,0.3-0.3c0,0,0.1,0.1,0.2,0.2c0.1,0.1,0.1,0.2,0.1,0.3c-0.2,0.3-0.5,0.7-1.1,1.2
			c-0.6,0.5-1.2,0.7-1.7,0.7c-0.8,0-1.3-0.3-1.7-0.8c-0.4-0.5-0.6-1.2-0.6-2.2c0-0.8,0.2-1.7,0.6-2.5c0.4-0.8,1-1.5,1.6-2.1
			C279.7,9510.1,280.4,9509.8,281.1,9509.8z M280.9,9510.7c-0.4,0-0.9,0.4-1.4,1.1c-0.5,0.7-0.7,1.4-0.7,2c0,0,0,0.1,0.1,0.1
			c0.5,0,1-0.3,1.6-0.8c0.6-0.6,0.9-1.1,0.9-1.7c0-0.2,0-0.3-0.1-0.5C281.2,9510.7,281.1,9510.7,280.9,9510.7z"/>
		<path class="st1" d="M286.2,9509.8c0.2,0,0.4,0.1,0.6,0.3c0.2,0.2,0.2,0.4,0.2,0.7c0,0.2,0,0.6-0.1,1.1c0,0,0,0.1,0,0.2
			c0,0.1,0,0.2-0.1,0.4c0,0.2-0.1,0.3-0.1,0.6c0.3-0.6,0.8-1.2,1.5-2c0.7-0.8,1.3-1.2,1.8-1.2c0.8,0,1.3,0.5,1.3,1.6
			c0,0.4-0.1,1.1-0.3,2l-0.5,2.4c0,0.1-0.1,0.3-0.1,0.4c0,0.3,0.1,0.5,0.2,0.5c0.1,0,0.3-0.1,0.5-0.2c0.2-0.2,0.4-0.3,0.5-0.5
			c0.1-0.1,0.2-0.2,0.3-0.3c0,0,0.1,0.1,0.2,0.2c0.1,0.1,0.1,0.2,0.1,0.3c-0.1,0.3-0.5,0.7-1.2,1.2c-0.6,0.5-1.2,0.8-1.6,0.8
			c-0.2,0-0.4-0.1-0.6-0.3c-0.2-0.2-0.2-0.4-0.2-0.8c0-0.2,0.1-0.6,0.2-1.2l0.5-2.6c0.1-0.5,0.1-0.9,0.1-1c0-0.5-0.1-0.8-0.4-0.8
			c-0.2,0-0.5,0.3-0.9,0.8c-0.4,0.5-0.8,1.1-1.2,1.9c-0.4,0.8-0.6,1.5-0.8,2.2l-0.4,1.7c-0.2,0.1-0.5,0.1-0.8,0.1s-0.6,0-0.9-0.1
			l1.1-5.8c0-0.3,0.1-0.5,0.1-0.6c0-0.3-0.1-0.4-0.2-0.4c-0.1,0-0.4,0.1-0.6,0.4c-0.3,0.2-0.5,0.4-0.6,0.6c0,0-0.1-0.1-0.2-0.2
			c-0.1-0.1-0.1-0.2-0.1-0.3c0.1-0.3,0.5-0.7,1.1-1.2C285.3,9510,285.8,9509.8,286.2,9509.8z"/>
	</g>
	<path id="パス_986" class="st1" d="M265,9489.3c1.4-0.3,2.7-1.2,3.5-2.5c0-0.1,0.1-0.1,0.1-0.2c1.6-3.3-4-3.6-4-3.6
		c3-0.3,11.6-5.5,11.6-5.5c-2.1,0.9-6.7-6.6-6.7-6.6c-0.4-0.4-3.2-6.7-3.2-6.7c-3.2-8.8-8.6-11.2-8.6-11.2c-5.5-2.6-15-1.9-15-1.9
		c-10.5,1.5-14.1,9.2-14.1,9.2c-1,2-2,4-2.7,6.1c-0.5,1.9-4.9,8.8-4.9,8.8c-0.7-0.3-0.6-4.7-0.6-4.7c0.2-1.3,0.8-5.2,0.8-5.2
		c0.3-2.4-0.8-4.7-2.8-6c-1.7-1.1-5.4-0.5-5.4-0.5c-3.1,1-5.4,3.8-5.9,7c0.9-0.1,2.5,3,2.5,3c1.3,2.1,2.8,4.1,4.4,6
		c5.7,6,14.9,8.5,14.9,8.5c-1.1-0.1-2.1,0.1-3.2,0.5c-3.7,2.9,0.9,4.9,0.9,4.9c2.9,1.7,8.2,1.9,8.2,1.9c5.9,0.5,3.5-3.3,3.5-3.3
		c0.1-0.7-2.5-2.2-2.5-2.2c7.5,1.2,22.2-0.1,22.2-0.1c-1.2,0.3-2.2,1.2-2.7,2.2c-2,4.9,5,3.3,5,3.3
		C261.8,9490.2,263.4,9489.8,265,9489.3z M214.5,9468.6c-0.9,0-1.5-1.1-1.5-1.1c0.8,0.4-0.1-3.8-0.1-3.8c0.3-1.1,1.7-1.3,1.7-1.3
		c1.6,0.3,1.9,3.1,1.9,3.1C216.6,9466.9,215.8,9468.1,214.5,9468.6L214.5,9468.6z M236.2,9463.9c0,0-1.9,12.1-2.1,12.6
		c0,0-1.2,3.6-4,2.2c-1.6-0.6-2.5-2.3-2-4c0.1-0.2,0.1-0.4,0.2-0.5c0,0,3.7-9.7,4.4-11c0,0,1.2-2.8,2.6-2.6
		C235.3,9460.6,236.9,9461,236.2,9463.9L236.2,9463.9z M248.1,9480.9c0,0-4,0.4-5.7-1.1c-1.5-1.3-2.1-3.2-1.7-5.1l2.9-13.9
		c0,0,0.4-3.4,3-3.5c0,0,2-0.3,3,3.2c0,0,3,12.6,3,14.1C252.6,9474.6,253.9,9479.8,248.1,9480.9L248.1,9480.9z M259,9475.6
		c0,0-2-10.2-2.1-11.7c0,0-0.5-3,0.8-3.6c0,0,1.6-0.5,2.5,2.2c0,0,4.9,11.2,4.9,11.8c0,0,0.9,3.7-2.2,4.1c-1.6,0.4-3.3-0.5-3.8-2.2
		C259,9476.1,259,9475.9,259,9475.6L259,9475.6z"/>
</g>
</svg>
