<?xml version="1.0" encoding="utf-8"?>
<!-- Generator: Adobe Illustrator 25.0.0, SVG Export Plug-In . SVG Version: 6.00 Build 0)  -->
<svg version="1.1" id="レイヤー_1" xmlns="http://www.w3.org/2000/svg" xmlns:xlink="http://www.w3.org/1999/xlink" x="0px"
	 y="0px" viewBox="0 0 122 78" style="enable-background:new 0 0 122 78;" xml:space="preserve">
<style type="text/css">
	.st0{enable-background:new    ;}
	.st1{fill:#111111;}
</style>
<g class="st0">
	<path class="st1" d="M3.9,60c0-0.2,0.5-0.3,1.5-0.3c0.2,0,0.4,0,0.6,0l-0.6,2.7h2c0.1,0,0.2,0.1,0.2,0.3c0,0.3-0.1,0.6-0.2,0.8H5.2
		l-1.1,5.8C4,69.5,4,69.7,4,69.9c0,0.4,0.1,0.6,0.2,0.6c0.1,0,0.4-0.1,0.6-0.3c0.3-0.2,0.5-0.4,0.6-0.6s0.3-0.3,0.3-0.4
		c0,0,0.1,0.1,0.2,0.2c0.1,0.1,0.2,0.2,0.2,0.3c-0.2,0.4-0.6,0.8-1.4,1.5c-0.8,0.6-1.4,0.9-2,0.9c-0.3,0-0.5-0.1-0.7-0.3
		c-0.2-0.2-0.3-0.5-0.3-0.9c0-0.3,0.1-0.8,0.2-1.4l1.1-5.9H1.7c0,0-0.1-0.1-0.1-0.3c0-0.1,0-0.3,0.1-0.5s0.1-0.3,0.2-0.4h1.4L3.9,60
		z"/>
	<path class="st1" d="M14.2,62.1c0.7,0,1.4,0.1,1.9,0.4l-1.3,6.9c0,0.1-0.1,0.3-0.1,0.5c0,0.4,0.1,0.6,0.2,0.6
		c0.1,0,0.4-0.1,0.6-0.3c0.3-0.2,0.5-0.4,0.6-0.6s0.3-0.3,0.3-0.4c0,0,0.1,0.1,0.2,0.2c0.1,0.1,0.2,0.2,0.2,0.3
		c-0.2,0.4-0.6,0.8-1.4,1.5c-0.8,0.6-1.4,0.9-2,0.9c-0.3,0-0.5-0.1-0.7-0.3c-0.2-0.2-0.3-0.5-0.3-0.9c0-0.2,0-0.4,0.1-0.7
		c0-0.2,0.1-0.4,0.1-0.5c-0.1,0.2-0.3,0.5-0.5,0.7c-0.2,0.2-0.4,0.5-0.6,0.8c-0.2,0.3-0.5,0.5-0.8,0.7c-0.3,0.2-0.6,0.2-0.9,0.2
		c-0.7,0-1.3-0.3-1.7-0.9S7.5,69.9,7.5,69c0-1,0.3-2.1,0.9-3.2c0.6-1.1,1.5-2,2.5-2.7C12,62.4,13.1,62.1,14.2,62.1z M13.1,63.3
		c-0.9,0-1.6,0.6-2.3,1.9c-0.7,1.3-1.1,2.5-1.1,3.7c0,1.2,0.3,1.8,0.9,1.8c0.5,0,1.1-0.5,1.6-1.6c0.6-1.1,1-2.2,1.2-3.3l0.4-2.2
		C13.7,63.4,13.5,63.3,13.1,63.3z"/>
	<path class="st1" d="M21.1,62.1c0.3,0,0.5,0.1,0.7,0.3c0.2,0.2,0.3,0.5,0.3,0.9c0,0.4,0,0.8-0.1,1.2c-0.2,0.9-0.3,1.4-0.3,1.4
		c0.4-1,1-1.8,1.6-2.7s1.3-1.2,1.9-1.2c0.5,0,1,0.3,1.4,0.8c0,1.2-0.4,1.9-1.1,1.9c-0.2,0-0.4-0.1-0.6-0.4c-0.2-0.3-0.4-0.4-0.7-0.4
		c-0.3,0-0.6,0.3-1.1,0.9c-0.5,0.6-0.9,1.4-1.3,2.3c-0.4,0.9-0.7,1.8-0.9,2.6L20.5,72c-0.3,0.1-0.7,0.1-1,0.1c-0.4,0-0.7,0-1.1-0.1
		l1.3-7c0-0.3,0.1-0.6,0.1-0.7c0-0.4-0.1-0.5-0.2-0.5c-0.2,0-0.4,0.1-0.7,0.4s-0.5,0.5-0.7,0.7c0,0-0.1-0.1-0.2-0.2
		c-0.1-0.1-0.2-0.3-0.2-0.3c0.2-0.3,0.6-0.8,1.4-1.4C19.9,62.4,20.6,62.1,21.1,62.1z"/>
	<path class="st1" d="M29.3,60c0-0.2,0.5-0.3,1.5-0.3c0.2,0,0.4,0,0.6,0l-0.6,2.7h2c0.1,0,0.2,0.1,0.2,0.3c0,0.3-0.1,0.6-0.2,0.8
		h-2.1l-1.1,5.8c0,0.1-0.1,0.3-0.1,0.5c0,0.4,0.1,0.6,0.2,0.6c0.1,0,0.4-0.1,0.6-0.3c0.3-0.2,0.5-0.4,0.6-0.6s0.3-0.3,0.3-0.4
		c0,0,0.1,0.1,0.2,0.2c0.1,0.1,0.2,0.2,0.2,0.3c-0.2,0.4-0.6,0.8-1.4,1.5c-0.8,0.6-1.4,0.9-2,0.9c-0.3,0-0.5-0.1-0.7-0.3
		c-0.2-0.2-0.3-0.5-0.3-0.9c0-0.3,0.1-0.8,0.2-1.4l1.1-5.9h-1.4c0,0-0.1-0.1-0.1-0.3c0-0.1,0-0.3,0.1-0.5s0.1-0.3,0.2-0.4h1.4
		L29.3,60z"/>
	<path class="st1" d="M39.6,62.1c0.7,0,1.4,0.1,1.9,0.4l-1.3,6.9c0,0.1-0.1,0.3-0.1,0.5c0,0.4,0.1,0.6,0.2,0.6
		c0.1,0,0.4-0.1,0.6-0.3c0.3-0.2,0.5-0.4,0.6-0.6s0.3-0.3,0.3-0.4c0,0,0.1,0.1,0.2,0.2c0.1,0.1,0.2,0.2,0.2,0.3
		c-0.2,0.4-0.6,0.8-1.4,1.5c-0.8,0.6-1.4,0.9-2,0.9c-0.3,0-0.5-0.1-0.7-0.3c-0.2-0.2-0.3-0.5-0.3-0.9c0-0.2,0-0.4,0.1-0.7
		c0-0.2,0.1-0.4,0.1-0.5c-0.1,0.2-0.3,0.5-0.5,0.7c-0.2,0.2-0.4,0.5-0.6,0.8c-0.2,0.3-0.5,0.5-0.8,0.7c-0.3,0.2-0.6,0.2-0.9,0.2
		c-0.7,0-1.3-0.3-1.7-0.9s-0.6-1.4-0.6-2.3c0-1,0.3-2.1,0.9-3.2c0.6-1.1,1.5-2,2.5-2.7C37.4,62.4,38.5,62.1,39.6,62.1z M38.5,63.3
		c-0.9,0-1.6,0.6-2.3,1.9c-0.7,1.3-1.1,2.5-1.1,3.7c0,1.2,0.3,1.8,0.9,1.8c0.5,0,1.1-0.5,1.6-1.6c0.6-1.1,1-2.2,1.2-3.3l0.4-2.2
		C39.1,63.4,38.9,63.3,38.5,63.3z"/>
	<path class="st1" d="M46.5,62.1c0.3,0,0.5,0.1,0.7,0.3c0.2,0.2,0.3,0.5,0.3,0.9c0,0.4,0,0.8-0.1,1.2c-0.2,0.9-0.3,1.4-0.3,1.4
		c0.4-1,1-1.8,1.6-2.7s1.3-1.2,1.9-1.2c0.5,0,1,0.3,1.4,0.8c0,1.2-0.4,1.9-1.1,1.9c-0.2,0-0.4-0.1-0.6-0.4c-0.2-0.3-0.4-0.4-0.7-0.4
		c-0.3,0-0.6,0.3-1.1,0.9c-0.5,0.6-0.9,1.4-1.3,2.3c-0.4,0.9-0.7,1.8-0.9,2.6L45.9,72c-0.3,0.1-0.7,0.1-1,0.1c-0.4,0-0.7,0-1.1-0.1
		l1.3-7c0-0.3,0.1-0.6,0.1-0.7c0-0.4-0.1-0.5-0.2-0.5c-0.2,0-0.4,0.1-0.7,0.4s-0.5,0.5-0.7,0.7c0,0-0.1-0.1-0.2-0.2
		c-0.1-0.1-0.2-0.3-0.2-0.3c0.2-0.3,0.6-0.8,1.4-1.4C45.4,62.4,46,62.1,46.5,62.1z"/>
	<path class="st1" d="M55.4,62.1c0.3,0,0.5,0.1,0.7,0.3c0.2,0.2,0.3,0.5,0.3,0.9c0,0.4-0.1,0.9-0.2,1.4l-0.7,3.2
		c-0.1,0.6-0.2,1.1-0.2,1.3c0,0.6,0.2,0.9,0.5,0.9c0.3,0,0.6-0.3,1.1-0.9c0.5-0.6,0.9-1.4,1.4-2.3c0.4-0.9,0.7-1.8,0.9-2.6l0.4-2
		c0.3-0.1,0.6-0.1,1-0.1c0.4,0,0.7,0,1,0.1l-1.4,7.1c0,0.2,0,0.3,0,0.5c0,0.4,0.1,0.6,0.2,0.6c0.1,0,0.3-0.1,0.6-0.3
		c0.3-0.2,0.5-0.4,0.6-0.6s0.3-0.3,0.3-0.4c0,0,0.1,0.1,0.2,0.2c0.1,0.1,0.2,0.2,0.2,0.3c-0.2,0.4-0.6,0.8-1.4,1.5
		c-0.8,0.6-1.4,0.9-2,0.9c-0.3,0-0.5-0.1-0.7-0.3c-0.2-0.2-0.3-0.5-0.3-0.9c0-0.2,0.1-0.7,0.2-1.3c0-0.1,0-0.1,0-0.2
		c0-0.1,0-0.2,0.1-0.4c0-0.2,0.1-0.4,0.1-0.7c-0.2,0.4-0.5,0.9-0.9,1.4c-0.4,0.6-0.9,1.1-1.5,1.6s-1,0.8-1.4,0.8c-1,0-1.5-0.7-1.5-2
		c0-0.6,0.1-1.4,0.3-2.4l0.5-2.7c0.1-0.3,0.1-0.5,0.1-0.7c0-0.4-0.1-0.5-0.2-0.5c-0.2,0-0.4,0.1-0.7,0.4s-0.5,0.5-0.7,0.7
		c0,0-0.1-0.1-0.2-0.2c-0.1-0.1-0.2-0.3-0.2-0.3c0.2-0.3,0.6-0.8,1.4-1.4C54.2,62.4,54.9,62.1,55.4,62.1z"/>
	<path class="st1" d="M68.7,62.1c0.4,0,0.9,0.1,1.4,0.3s1.1,0.3,1.6,0.3h1.1c0.1,0,0.2,0.1,0.2,0.2c0,0.3-0.1,0.6-0.2,0.8h-1.2
		c-0.1,0-0.1,0-0.1,0.1c0,0,0,0.1,0,0.2s0,0.3,0.1,0.4c0,0.2,0,0.3,0,0.5c0,0.5-0.1,1-0.2,1.4c-0.1,0.4-0.3,0.8-0.6,1.1
		c-0.2,0.3-0.5,0.5-0.7,0.7c-0.2,0.2-0.4,0.3-0.6,0.5c-0.2,0.1-0.6,0.3-1.1,0.5c-0.5,0.2-0.9,0.4-1.2,0.6c-0.3,0.2-0.5,0.3-0.5,0.5
		c0,0.1,0.2,0.2,0.5,0.3s0.7,0.2,1.2,0.3c0.5,0.1,0.9,0.3,1.4,0.4s0.8,0.4,1.1,0.8s0.5,0.7,0.5,1.2c0,1-0.5,1.8-1.4,2.6
		s-2.3,1.1-4,1.1c-1,0-1.9-0.2-2.6-0.6c-0.7-0.4-1-1-1-1.6c0-1,1-1.9,2.9-2.6c-0.1,0-0.3-0.1-0.6-0.3C64.2,71.7,64,71.4,64,71
		c0-0.3,0.3-0.6,0.8-0.9s1.1-0.6,1.6-0.8c-0.6-0.1-1.1-0.4-1.6-0.9s-0.7-1.1-0.7-1.8c0-1.2,0.4-2.3,1.3-3.2
		C66.5,62.5,67.5,62.1,68.7,62.1z M69.3,74.4c0-0.7-1.1-1.3-3.2-1.8c-0.3,0.1-0.5,0.2-0.6,0.3s-0.4,0.2-0.6,0.3
		c-0.2,0.1-0.4,0.3-0.5,0.5c-0.1,0.2-0.2,0.4-0.2,0.6c0,1.1,0.9,1.7,2.6,1.7c0.8,0,1.4-0.2,1.9-0.5C69,75.3,69.3,74.9,69.3,74.4z
		 M68.3,63.2c-0.4,0-0.8,0.2-1.1,0.6c-0.3,0.4-0.5,0.9-0.7,1.4c-0.1,0.5-0.2,1.1-0.2,1.6c0,0.5,0.1,0.9,0.3,1.2
		c0.2,0.3,0.5,0.4,0.8,0.4c0.4,0,0.8-0.2,1.1-0.6c0.3-0.4,0.5-0.8,0.7-1.3c0.1-0.5,0.2-1,0.2-1.4c0-0.5-0.1-0.9-0.3-1.3
		C68.9,63.3,68.6,63.2,68.3,63.2z"/>
	<path class="st1" d="M80,62.1c0.7,0,1.4,0.1,1.9,0.4l-1.3,6.9c0,0.1-0.1,0.3-0.1,0.5c0,0.4,0.1,0.6,0.2,0.6s0.4-0.1,0.6-0.3
		c0.3-0.2,0.5-0.4,0.6-0.6s0.3-0.3,0.3-0.4c0,0,0.1,0.1,0.2,0.2c0.1,0.1,0.2,0.2,0.2,0.3c-0.2,0.4-0.6,0.8-1.4,1.5
		c-0.8,0.6-1.4,0.9-2,0.9c-0.3,0-0.5-0.1-0.7-0.3c-0.2-0.2-0.3-0.5-0.3-0.9c0-0.2,0-0.4,0.1-0.7c0-0.2,0.1-0.4,0.1-0.5
		c-0.1,0.2-0.3,0.5-0.5,0.7c-0.2,0.2-0.4,0.5-0.6,0.8c-0.2,0.3-0.5,0.5-0.8,0.7c-0.3,0.2-0.6,0.2-0.9,0.2c-0.7,0-1.3-0.3-1.7-0.9
		s-0.6-1.4-0.6-2.3c0-1,0.3-2.1,0.9-3.2c0.6-1.1,1.5-2,2.5-2.7C77.7,62.4,78.8,62.1,80,62.1z M78.9,63.3c-0.9,0-1.6,0.6-2.3,1.9
		c-0.7,1.3-1.1,2.5-1.1,3.7c0,1.2,0.3,1.8,0.9,1.8c0.5,0,1.1-0.5,1.6-1.6c0.6-1.1,1-2.2,1.2-3.3l0.4-2.2
		C79.5,63.4,79.2,63.3,78.9,63.3z"/>
	<path class="st1" d="M94.5,62.1c1.1,0,1.7,0.8,1.7,2.3c0,0.2-0.1,0.6-0.2,1.4c0.4-0.8,1.1-1.6,1.8-2.4c0.8-0.8,1.4-1.2,1.9-1.2
		c1.1,0,1.6,0.7,1.6,2c0,0.5-0.1,1.3-0.4,2.4l-0.6,2.9c0,0.1,0,0.3,0,0.5c0,0.4,0.1,0.6,0.2,0.6c0.1,0,0.3-0.1,0.6-0.3
		c0.3-0.2,0.5-0.4,0.6-0.6s0.3-0.3,0.3-0.4c0,0,0.1,0.1,0.2,0.2c0.1,0.1,0.2,0.2,0.2,0.3c-0.2,0.4-0.6,0.8-1.4,1.5
		c-0.8,0.6-1.4,0.9-2,0.9c-0.3,0-0.5-0.1-0.7-0.3c-0.2-0.2-0.3-0.5-0.3-0.9c0-0.3,0.1-0.8,0.2-1.4l0.7-3.2c0.1-0.6,0.2-1,0.2-1.3
		c0-0.3,0-0.5-0.1-0.7c-0.1-0.2-0.2-0.2-0.4-0.2c-0.4,0-1.1,0.7-1.9,2c-0.8,1.3-1.3,2.5-1.5,3.7L94.8,72c-0.4,0.1-0.7,0.1-1,0.1
		c-0.4,0-0.7,0-1-0.1l1.2-5.9C94,65.6,94,65.2,94,65c0-0.6-0.2-0.9-0.6-0.9c-0.3,0-0.7,0.3-1.2,1c-0.5,0.6-0.9,1.4-1.4,2.3
		c-0.4,0.9-0.7,1.7-0.8,2.4L89.7,72c-0.3,0.1-0.7,0.1-1,0.1c-0.3,0-0.7,0-1-0.1l1.3-7c0.1-0.3,0.1-0.6,0.1-0.7
		c0-0.4-0.1-0.5-0.2-0.5c-0.2,0-0.4,0.1-0.8,0.4c-0.3,0.3-0.6,0.5-0.7,0.7c0,0-0.1-0.1-0.2-0.2c-0.1-0.1-0.1-0.3-0.1-0.3
		c0.2-0.3,0.6-0.8,1.4-1.4c0.7-0.6,1.4-0.9,1.9-0.9c0.3,0,0.5,0.1,0.7,0.3c0.2,0.2,0.3,0.5,0.3,0.9c0,0.3-0.1,0.7-0.2,1.3l-0.3,1.3
		c0.5-0.9,1.1-1.7,1.8-2.6C93.4,62.5,94,62.1,94.5,62.1z"/>
	<path class="st1" d="M108.3,62.1c0.7,0,1.3,0.2,1.7,0.6c0.4,0.4,0.7,0.8,0.7,1.3c0,0.7-0.4,1.4-1.1,2c-0.7,0.6-1.5,1.1-2.3,1.5
		s-1.5,0.5-1.9,0.5c-0.1,0-0.1,0.2-0.1,0.5c0,1.4,0.5,2.2,1.4,2.2c0.3,0,0.7-0.1,1-0.3s0.6-0.4,0.8-0.6c0.2-0.2,0.3-0.3,0.4-0.4
		c0,0,0.1,0.1,0.2,0.2c0.1,0.1,0.2,0.2,0.2,0.3c-0.2,0.4-0.6,0.9-1.4,1.4c-0.7,0.6-1.4,0.8-2.1,0.8c-0.9,0-1.6-0.3-2.1-0.9
		c-0.5-0.6-0.7-1.5-0.7-2.6c0-1,0.3-2,0.8-3c0.5-1,1.2-1.8,2-2.5C106.7,62.4,107.5,62.1,108.3,62.1z M108.1,63.2
		c-0.5,0-1.1,0.5-1.7,1.4c-0.6,0.9-0.9,1.7-0.9,2.4c0,0.1,0,0.1,0.1,0.1c0.6,0,1.3-0.3,2-1c0.7-0.7,1-1.4,1-2c0-0.2,0-0.4-0.1-0.6
		C108.4,63.2,108.3,63.2,108.1,63.2z"/>
	<path class="st1" d="M114.5,62.1c0.3,0,0.5,0.1,0.7,0.3c0.2,0.2,0.3,0.5,0.3,0.9c0,0.3-0.1,0.7-0.2,1.3c0,0.1,0,0.1,0,0.2
		s0,0.2-0.1,0.4c0,0.2-0.1,0.4-0.1,0.7c0.3-0.7,0.9-1.5,1.8-2.4c0.8-1,1.6-1.4,2.1-1.4c1,0,1.5,0.7,1.5,2c0,0.5-0.1,1.3-0.3,2.4
		l-0.6,2.9c0,0.1-0.1,0.3-0.1,0.5c0,0.4,0.1,0.6,0.2,0.6s0.4-0.1,0.6-0.3c0.3-0.2,0.5-0.4,0.6-0.6s0.3-0.3,0.3-0.4
		c0,0,0.1,0.1,0.2,0.2c0.1,0.1,0.1,0.2,0.1,0.3c-0.2,0.4-0.6,0.8-1.4,1.5s-1.4,0.9-2,0.9c-0.3,0-0.5-0.1-0.7-0.3
		c-0.2-0.2-0.3-0.5-0.3-0.9c0-0.3,0.1-0.8,0.2-1.4l0.7-3.2c0.1-0.6,0.2-1,0.2-1.3c0-0.6-0.2-0.9-0.5-0.9c-0.3,0-0.6,0.3-1.1,0.9
		c-0.5,0.6-1,1.4-1.4,2.3s-0.8,1.8-0.9,2.6l-0.4,2.1c-0.2,0.1-0.6,0.1-1,0.1s-0.8,0-1.1-0.1l1.3-7c0.1-0.3,0.1-0.6,0.1-0.7
		c0-0.4-0.1-0.5-0.2-0.5c-0.2,0-0.4,0.1-0.8,0.4c-0.3,0.3-0.6,0.5-0.7,0.7c0,0-0.1-0.1-0.2-0.2c-0.1-0.1-0.1-0.3-0.1-0.3
		c0.2-0.3,0.6-0.8,1.4-1.4C113.4,62.4,114,62.1,114.5,62.1z"/>
</g>
<path id="パス_986" class="st1" d="M86.8,42.2c1.6-0.4,2.9-1.3,3.8-2.7c0-0.1,0.1-0.1,0.1-0.2c1.8-3.6-4.4-4-4.4-4
	c3.4-0.4,12.7-6.1,12.7-6.1c-2.3,1-7.3-7.3-7.3-7.3c-0.4-0.4-3.5-7.4-3.5-7.4c-3.6-9.6-9.5-12.3-9.5-12.3c-6-2.8-16.5-2.1-16.5-2.1
	C50.6,1.8,46.7,10.2,46.7,10.2c-1.1,2.2-2.1,4.4-3,6.7c-0.6,2.1-5.4,9.7-5.4,9.7c-0.8-0.4-0.7-5.1-0.7-5.1c0.2-1.5,0.8-5.7,0.8-5.7
	c0.4-2.6-0.8-5.2-3.1-6.6c-1.9-1.3-6-0.6-6-0.6c-3.4,1.1-6,4.1-6.5,7.7c1-0.2,2.7,3.3,2.7,3.3c1.4,2.3,3,4.5,4.8,6.6
	c6.2,6.6,16.4,9.3,16.4,9.3c-1.2-0.1-2.4,0.1-3.5,0.5c-4,3.2,1,5.4,1,5.4c3.2,1.9,9,2.1,9,2.1c6.5,0.6,3.9-3.7,3.9-3.7
	c0.1-0.8-2.8-2.4-2.8-2.4c8.2,1.3,24.5-0.1,24.5-0.1c-1.3,0.4-2.4,1.3-3,2.5c-2.2,5.3,5.6,3.6,5.6,3.6C83.3,43.1,85,42.7,86.8,42.2z
	 M31.2,19.4c-1,0-1.7-1.3-1.7-1.3c0.9,0.4-0.1-4.2-0.1-4.2c0.3-1.2,1.9-1.5,1.9-1.5c1.8,0.3,2.1,3.4,2.1,3.4
	C33.5,17.4,32.6,18.9,31.2,19.4L31.2,19.4z M55.1,14.1c0,0-2,13.3-2.3,13.9c0,0-1.4,4-4.4,2.4c-1.8-0.6-2.8-2.6-2.2-4.4
	c0.1-0.2,0.2-0.4,0.3-0.6c0,0,4.1-10.6,4.9-12.1c0,0,1.3-3.1,2.8-2.8C54.2,10.6,55.9,11,55.1,14.1L55.1,14.1z M68.2,32.9
	c0,0-4.4,0.5-6.3-1.2c-1.6-1.4-2.3-3.5-1.9-5.6l3.2-15.3c0,0,0.4-3.7,3.3-3.8c0,0,2.2-0.3,3.3,3.5c0,0,3.2,13.9,3.3,15.5
	C73.1,25.9,74.6,31.7,68.2,32.9z M80.2,27.1c0,0-2.3-11.2-2.3-12.9c0,0-0.6-3.3,0.9-3.9c0,0,1.7-0.5,2.7,2.5c0,0,5.4,12.3,5.4,12.9
	c0,0,1,4.1-2.4,4.5c-1.8,0.5-3.7-0.6-4.1-2.4C80.3,27.6,80.2,27.3,80.2,27.1L80.2,27.1z"/>
</svg>
