<?xml version="1.0" encoding="utf-8"?>
<!-- Generator: Adobe Illustrator 25.0.0, SVG Export Plug-In . SVG Version: 6.00 Build 0)  -->
<svg version="1.1" id="レイヤー_1" xmlns="http://www.w3.org/2000/svg" xmlns:xlink="http://www.w3.org/1999/xlink" x="0px"
	 y="0px" viewBox="0 0 20 20" style="enable-background:new 0 0 20 20;" xml:space="preserve">
<style type="text/css">
	.st0{fill:#111111;}
</style>
<g id="header-icon-instagram" transform="translate(-4.079 -4.079)">
	<path id="パス_974" class="st0" d="M14.1,5.9c2.7,0,3,0,4,0.1c0.6,0,1.3,0.1,1.9,0.3c0.9,0.3,1.6,1,1.9,1.9
		c0.2,0.6,0.3,1.2,0.3,1.9c0,1.1,0.1,1.4,0.1,4s0,3-0.1,4c0,0.6-0.1,1.3-0.3,1.9c-0.3,0.9-1,1.6-1.9,1.9c-0.6,0.2-1.2,0.3-1.9,0.3
		c-1.1,0-1.4,0.1-4,0.1s-3,0-4-0.1c-0.6,0-1.3-0.1-1.9-0.3c-0.9-0.3-1.6-1-1.9-1.9c-0.2-0.6-0.3-1.2-0.3-1.9c0-1.1-0.1-1.4-0.1-4
		s0-3,0.1-4c0-0.6,0.1-1.3,0.3-1.9c0.3-0.9,1-1.6,1.9-1.9C8.8,6.1,9.4,5.9,10,5.9C11.1,5.9,11.4,5.9,14.1,5.9 M14.1,4.1
		c-2.7,0-3.1,0-4.1,0.1c-0.8,0-1.6,0.2-2.4,0.5C6.2,5.1,5.1,6.2,4.6,7.5C4.3,8.3,4.2,9.1,4.1,10c0,1.1-0.1,1.4-0.1,4.1
		s0,3.1,0.1,4.1c0,0.8,0.2,1.7,0.5,2.4C5.1,22,6.2,23,7.5,23.6C8.3,23.8,9.1,24,10,24c1.1,0,1.4,0.1,4.1,0.1s3.1,0,4.1-0.1
		c0.8,0,1.7-0.2,2.4-0.5C22,23,23,22,23.5,20.6c0.3-0.8,0.4-1.6,0.5-2.4c0-1.1,0.1-1.4,0.1-4.1s0-3.1-0.1-4.1c0-0.8-0.2-1.7-0.5-2.4
		C23,6.2,22,5.1,20.6,4.6c-0.8-0.3-1.6-0.4-2.4-0.5C17.1,4.1,16.8,4.1,14.1,4.1L14.1,4.1z"/>
	<path id="パス_975" class="st0" d="M14.1,8.6c-3,0-5.5,2.4-5.5,5.5c0,3,2.4,5.5,5.5,5.5c3,0,5.5-2.4,5.5-5.5l0,0
		C19.5,11.1,17.1,8.6,14.1,8.6z M14.1,17.6c-2,0-3.5-1.6-3.5-3.5s1.6-3.5,3.5-3.5c2,0,3.5,1.6,3.5,3.5c0,0,0,0,0,0
		C17.6,16,16,17.6,14.1,17.6L14.1,17.6z"/>
	<circle id="楕円形_3" class="st0" cx="19.5" cy="8.7" r="1.1"/>
</g>
</svg>
