<?xml version="1.0" encoding="utf-8"?>
<!-- Generator: Adobe Illustrator 25.0.0, SVG Export Plug-In . SVG Version: 6.00 Build 0)  -->
<svg version="1.1" id="header-tartaruga-logo" xmlns="http://www.w3.org/2000/svg" xmlns:xlink="http://www.w3.org/1999/xlink"
	 x="0px" y="0px" viewBox="0 0 90 18.6" style="enable-background:new 0 0 90 18.6;" xml:space="preserve">
<style type="text/css">
	.st0{fill-rule:evenodd;clip-rule:evenodd;fill:#666666;}
</style>
<path id="パス_977" class="st0" d="M8.6,3.1L8.4,3.4H5.1L2,8.3C1.5,9,1.2,9.7,1.1,10.5c0,0.5,0.3,0.7,0.9,0.7
	c1.2-0.2,2.3-0.7,3.1-1.5c1.8-1.4,3.3-3.1,4.5-5l0.2,0.1C8.6,6.8,7,8.5,5.2,9.9c-1,0.9-2.2,1.5-3.6,1.6c-0.4,0-0.9-0.2-1.2-0.5
	C0.2,10.7,0,10.3,0,9.8c0-0.6,0.2-1.2,0.5-1.7l3-4.8l-1.4,0l0.2-0.3l1.4,0l1.9-3L7.2,0L5.3,3.1L8.6,3.1z"/>
<path id="パス_978" class="st0" d="M16.5,3l-0.9,1.4c-0.2-1.1-0.8-1.7-1.7-1.7c-0.8,0-1.5,0.3-2.2,0.6C10.8,3.8,10,4.4,9.4,5.1
	C8.7,5.8,8.1,6.6,7.6,7.5C7.3,8.1,7.1,8.9,7,9.6c0,0.5,0.1,1,0.4,1.4c0.3,0.3,0.7,0.5,1.2,0.5c0.7,0,1.4-0.3,2-0.7
	c0.9-0.6,1.7-1.3,2.4-2.2l0.1,0.1c-0.4,0.5-0.6,1.1-0.7,1.7c0,0.3,0.1,0.7,0.4,0.9c0.3,0.2,0.6,0.4,1,0.3c1.2-0.2,2.2-0.8,3-1.7
	c1.6-1.6,3.1-3.3,4.4-5.2l-0.2-0.1c-1.3,1.8-2.7,3.5-4.3,5c-1.2,1.1-2.1,1.6-2.7,1.6c-0.4,0-0.6-0.2-0.6-0.5
	c0.2-0.9,0.6-1.7,1.1-2.5c1.1-1.9,2.3-3.7,3.6-5.4L16.5,3z M12.3,3.6c0.5-0.4,1-0.6,1.6-0.7c0.7,0,1,0.4,1,1.3
	c0,0.8-0.3,1.6-0.7,2.3c-0.5,1-1.2,1.9-1.9,2.7c-1.1,1.2-2,1.8-2.8,1.8c-0.6,0-0.9-0.4-0.9-1.2C8.6,9.2,8.7,8.5,9,8
	c0.3-0.8,0.7-1.5,1.2-2.1C10.7,5,11.4,4.2,12.3,3.6L12.3,3.6z"/>
<path id="パス_979" class="st0" d="M26.8,6.1c0.4,0,0.9-0.2,1.3-0.4c0.5-0.3,1-0.7,1.4-1.1l0.1,0.1c-0.4,0.5-1,0.9-1.5,1.2
	c-0.5,0.3-1.1,0.4-1.7,0.4c-1.1,0-1.7-0.5-1.7-1.6c0-0.5,0.1-0.9,0.4-1.4c-1.4,1-2.6,2.2-3.8,3.5c-1.1,1.3-2,2.7-2.7,4.3l-1.8,0.1
	L22,2.9l1.7-0.1l-3.3,4.7l0.1,0.1c0.8-1,1.7-1.9,2.6-2.8c0.6-0.6,1.3-1.1,2-1.6c0.1-0.1,0.3-0.2,0.4-0.4c0.1-0.1,0.2-0.2,0.4-0.2H27
	c-0.4,0.5-0.6,1-0.9,1.5c-0.2,0.4-0.3,0.8-0.3,1.2C25.9,5.9,26.2,6.1,26.8,6.1z"/>
<path id="パス_980" class="st0" d="M35.1,3.1L35,3.4h-3.3l-3.2,5C28,9,27.7,9.7,27.7,10.5c0,0.5,0.3,0.7,0.9,0.7
	c1.2-0.2,2.3-0.7,3.1-1.5c1.8-1.4,3.3-3.1,4.5-5l0.1,0.1c-1.3,1.9-2.8,3.6-4.6,5c-1,0.9-2.2,1.5-3.6,1.6c-0.5,0-0.9-0.2-1.2-0.5
	c-0.3-0.3-0.5-0.8-0.5-1.3c0-0.6,0.2-1.2,0.5-1.7l3-4.8l-1.4,0l0.2-0.3l1.4,0l1.9-3L33.8,0l-1.9,3.1L35.1,3.1z"/>
<path id="パス_981" class="st0" d="M43,3l-0.9,1.4c-0.2-1.1-0.8-1.7-1.7-1.7c-0.8,0-1.5,0.3-2.2,0.6c-0.9,0.5-1.6,1.1-2.3,1.8
	c-0.7,0.7-1.3,1.5-1.7,2.4c-0.4,0.7-0.6,1.4-0.6,2.1c0,0.5,0.1,1,0.4,1.4c0.3,0.3,0.7,0.5,1.2,0.5c0.7,0,1.4-0.3,2-0.7
	c0.9-0.6,1.7-1.3,2.4-2.2l0.1,0.1C39.3,9.2,39,9.7,39,10.4c0,0.3,0.1,0.7,0.4,0.9c0.3,0.2,0.6,0.4,1,0.3c1.2-0.2,2.2-0.8,3-1.7
	c1.6-1.6,3.1-3.3,4.4-5.2l-0.2-0.1c-1.3,1.8-2.7,3.5-4.3,5c-1.2,1.1-2.1,1.6-2.7,1.6c-0.4,0-0.6-0.2-0.6-0.5
	c0.2-0.9,0.6-1.7,1.1-2.5c1.1-1.9,2.3-3.7,3.6-5.4L43,3z M38.8,3.6c0.4-0.4,1-0.6,1.6-0.7c0.7,0,1,0.4,1,1.3c0,0.8-0.3,1.6-0.7,2.3
	c-0.5,1-1.2,1.9-1.9,2.7c-1.1,1.2-2,1.8-2.8,1.8c-0.6,0-0.9-0.4-0.9-1.2c0-0.6,0.2-1.3,0.4-1.9c0.3-0.8,0.7-1.5,1.2-2.1
	C37.2,5,37.9,4.2,38.8,3.6L38.8,3.6z"/>
<path id="パス_982" class="st0" d="M53.3,6.1c0.4,0,0.9-0.2,1.3-0.4c0.5-0.3,1-0.7,1.4-1.1l0.1,0.1c-0.4,0.5-1,0.9-1.5,1.2
	c-0.5,0.3-1.1,0.4-1.7,0.4c-0.8,0.1-1.5-0.4-1.6-1.1c0-0.1,0-0.3,0-0.5c0-0.5,0.1-0.9,0.4-1.4c-1.4,1-2.6,2.2-3.8,3.5
	c-1.1,1.3-2,2.7-2.7,4.3l-1.7,0.1l5.2-8.4l1.7-0.1l-3.3,4.7L47,7.5c0.8-1,1.7-1.9,2.6-2.8c0.6-0.6,1.3-1.1,2-1.6
	c0.1-0.1,0.3-0.2,0.4-0.4c0.1-0.1,0.2-0.2,0.4-0.2h1.1c-0.4,0.5-0.7,1-0.9,1.5c-0.2,0.4-0.3,0.8-0.3,1.2C52.4,5.9,52.7,6.1,53.3,6.1
	z"/>
<path id="パス_983" class="st0" d="M60.2,11.2c1-0.2,2-0.8,2.7-1.5c1.6-1.4,3.1-3.1,4.3-4.9l0.1,0.1c-1.2,1.8-2.7,3.5-4.3,5
	c-0.8,0.9-2,1.4-3.2,1.6c-0.7,0-1.4-0.5-1.4-1.2c0-0.1,0-0.1,0-0.2c0-0.6,0.2-1.2,0.6-1.7c-1.7,2.1-3.3,3.1-4.7,3.1
	c-1,0-1.5-0.4-1.5-1.3c0-0.5,0.2-1.1,0.5-1.5L57.1,3L59,2.8l-4.2,6.1c-0.2,0.3-0.4,0.6-0.5,1c-0.1,0.2-0.2,0.5-0.2,0.7
	c0,0.2,0.1,0.4,0.2,0.5c0.1,0.1,0.3,0.2,0.4,0.2c1.9,0,4.5-2.8,7.9-8.3l1.9-0.1c-1.3,1.9-2.2,3.1-2.6,3.7C61,7.5,60.5,8.4,60.1,9
	c-0.3,0.5-0.5,1-0.6,1.5C59.5,11,59.8,11.2,60.2,11.2z"/>
<path id="パス_984" class="st0" d="M74.2,2.9l-1.1,1.6c0-1.2-0.6-1.8-1.7-1.8c-0.7,0-1.5,0.2-2.1,0.6c-0.9,0.4-1.7,1-2.4,1.7
	c-0.7,0.7-1.4,1.5-1.8,2.4c-0.4,0.7-0.6,1.5-0.6,2.4c0,0.5,0.1,0.9,0.4,1.3c0.3,0.3,0.6,0.5,1,0.5c1.3,0,2.8-0.9,4.4-2.6l0.1,0
	c-0.4,0.6-1.1,1.5-1.9,2.8c-0.6,0.9-1,1.5-1.3,1.8c-0.9,1.4-2,2.6-3.3,3.6c-1.1,0.8-2.3,1.2-3.6,1.2c-0.7,0-1.4-0.2-2-0.7
	c-0.5-0.5-0.8-1.1-0.8-1.8c0-0.5,0.2-1.1,0.5-1.5c0.3-0.4,0.7-0.6,1.2-0.6h0.5l0-0.2c-0.3-0.1-0.6-0.1-0.9-0.1
	c-0.7,0-1.3,0.2-1.8,0.7c-0.5,0.4-0.7,1.1-0.7,1.7c0,0.8,0.4,1.5,1,2c0.8,0.6,1.9,0.8,2.9,0.8c3.9,0,7.3-2.4,10.1-7.2
	c1.6-0.3,3.2-1,4.5-2.1c1.6-1.3,3-2.8,4.1-4.5l-0.2-0.1c-1.1,1.7-2.4,3.1-4,4.4c-1.2,1-2.7,1.7-4.2,2.1L76,2.8L74.2,2.9z M66.6,7.4
	c0.5-1,1.1-1.9,1.8-2.7c0.5-0.5,1-1,1.6-1.4c0.4-0.3,0.8-0.4,1.2-0.5c0.7,0,1.1,0.4,1.1,1.4c0,0.8-0.3,1.5-0.6,2.2
	c-0.4,0.9-1,1.8-1.8,2.5c-1.2,1.3-2.3,2-3,2c-0.6,0-0.9-0.4-0.9-1.3C66,8.9,66.3,8.1,66.6,7.4z"/>
<path id="パス_985" class="st0" d="M85.2,3l-0.9,1.4c-0.2-1.1-0.8-1.7-1.7-1.7c-0.8,0-1.5,0.3-2.2,0.6c-0.9,0.5-1.7,1.1-2.3,1.8
	c-0.7,0.7-1.3,1.5-1.7,2.4c-0.4,0.7-0.6,1.4-0.6,2.1c0,0.5,0.1,1,0.4,1.4c0.3,0.3,0.7,0.5,1.2,0.5c0.7,0,1.4-0.3,2-0.7
	c0.9-0.6,1.7-1.3,2.4-2.2l0.1,0.1c-0.4,0.5-0.6,1.1-0.7,1.7c0,0.3,0.1,0.7,0.4,0.9c0.3,0.2,0.6,0.4,1,0.3c1.2-0.2,2.2-0.8,3-1.7
	c1.7-1.6,3.1-3.3,4.4-5.2l-0.2-0.1c-1.3,1.8-2.7,3.5-4.3,5c-1.2,1.1-2.1,1.6-2.7,1.6c-0.4,0-0.6-0.2-0.6-0.5
	c0.2-0.9,0.6-1.7,1.1-2.5c1.1-1.9,2.3-3.7,3.6-5.4L85.2,3z M81,3.6c0.4-0.4,1-0.6,1.6-0.7c0.7,0,1,0.4,1,1.3c0,0.8-0.3,1.6-0.7,2.3
	c-0.5,1-1.2,1.9-1.9,2.7c-1.1,1.2-2,1.8-2.8,1.8c-0.6,0-0.9-0.4-0.9-1.2c0-0.6,0.2-1.3,0.4-1.9c0.3-0.8,0.7-1.5,1.2-2.1
	C79.5,5,80.2,4.2,81,3.6L81,3.6z"/>
</svg>
