<?xml version="1.0" encoding="utf-8"?>
<!-- Generator: Adobe Illustrator 25.0.0, SVG Export Plug-In . SVG Version: 6.00 Build 0)  -->
<svg version="1.1" id="レイヤー_1" xmlns="http://www.w3.org/2000/svg" xmlns:xlink="http://www.w3.org/1999/xlink" x="0px"
	 y="0px" viewBox="0 0 20 19.9" style="enable-background:new 0 0 20 19.9;" xml:space="preserve">
<style type="text/css">
	.st0{fill:#111111;}
</style>
<g id="header-icon-facebook" transform="translate(61 -617.609)">
	<path id="パス_972" class="st0" d="M-41,627.6c0-5.5-4.5-10-10-10c-5.5,0-10,4.5-10,10c0,4.9,3.6,9.1,8.4,9.9v-7h-2.5v-2.9h2.5
		v-2.2c-0.2-1.9,1.2-3.7,3.1-3.9c0.2,0,0.4,0,0.6,0c0.7,0,1.5,0.1,2.2,0.2v2.5h-1.3c-0.8-0.1-1.5,0.5-1.6,1.2c0,0.1,0,0.2,0,0.3v1.9
		h2.8l-0.4,2.9h-2.3v7C-44.6,636.7-41,632.5-41,627.6z"/>
</g>
</svg>
