<svg id="レイヤー_1" data-name="レイヤー 1" xmlns="http://www.w3.org/2000/svg" viewBox="0 0 572.95 160.7"><defs><style>.cls-1{isolation:isolate;}.cls-2{fill:#999;}</style></defs><g id="mens-typo" class="cls-1"><g class="cls-1"><path class="cls-2" d="M172.23,320.1a507.56,507.56,0,0,1,42.12-44.82c14.58-13.77,30-27,46.71-38.07,14.86-9.72,33.49-20,51.58-21.06,8.1-.54,16.74,2.43,18.63,11.34,1.35,8.1-2.7,16.47-7,23.49-10,17-24.3,31.86-35.91,48.06-4.59,6.48-9.19,12.69-13.23,19.17A578.53,578.53,0,0,1,327.49,271c15.12-11.88,31.86-25.65,50.49-31.32,4.86-1.35,17.28-4.86,15.93,4.05-1.08,5.67-7.83,11.07-11.34,14.58-22.68,23.49-52.11,48.6-61,81-1.89,7.56-2.7,16.47,7.29,17.28,9.72.54,20.25-2.43,29.7-5.13a248.45,248.45,0,0,0,27.81-11.07l13.5-5.94c1.62-.81,3.51-2.16,5.13-.81,2.16,1.08,1.89,4.32-.27,5.4-8.64,4.32-17.28,7.56-25.65,11.34-9.18,3.78-18.9,7.83-28.35,11.34-10,3.24-24.84,8.1-34.29.27-8.91-7-5.13-21.06-.81-29.7,5.13-12.42,13.23-22.95,21.06-33.48,2.7-3.78,31.59-36.18,43.2-50.49a67.53,67.53,0,0,0-16.47,6.48c-9.45,4.86-17.82,10.8-26.19,16.74a446.63,446.63,0,0,0-46.44,41,589.46,589.46,0,0,0-42.67,47.52c-1.62,2.16-3.51,5.94-6.21,7.56a4.86,4.86,0,0,1-7-4.05c-.27-3.78,5.13-8.64,7-11.61L253,336.84c13.24-17.82,26.19-36.18,39.16-54,7.56-10.26,15.66-20.52,22.14-31.59,2.43-4.32,12.15-19.71,6.21-24.3-7-4.86-21.6,1.35-28.35,3.78-19.72,7.29-37.81,18.63-54.28,32.13a380.9,380.9,0,0,0-53.19,53.19c-5.13,6.21-9.72,11.88-14.31,18.09-4.32,14.31-13,28.89-22.68,38.61-6.21,6.21-14.31,5.13-10.26-2.43,5.67-12.15,14-22.68,21.87-33.21a48.62,48.62,0,0,0,3.51-18.63c-.27-3.78-4.05-10.8,0-14a4.87,4.87,0,0,1,7.56,2.43A47.41,47.41,0,0,1,172.23,320.1Z" transform="translate(-136.31 -216.09)"/><path class="cls-2" d="M422.79,323.07c4.59-8.1,14-13.77,23.76-15.39,4.86-.81,13-.54,16.47,4.05,5.4,5.94-7.83,13.23-11.61,15.66-6.48,3.78-14.58,6.21-22.41,5.4h-1.08c3,15.93,22.41,16.47,34.56,14a111.49,111.49,0,0,0,24.84-8.1c3.51-1.62,7.56-3.24,10.8-5.13,2.43-.81,6.48.81,4.32,4-1.62,2.7-5.67,3.51-8.1,4.59l-13.5,5.94a201.15,201.15,0,0,1-24.57,8.1C442,359,425.76,354.66,421.17,339c-.81-3-1.35-5.94-.81-8.37-4.05,1.89-7.83,4.59-10.8,6.21-1.89.81-5.13,3.78-7.83,2.16-2.16-1.35-1.89-4.59.27-5.4C408.48,330.36,415.77,326,422.79,323.07Zm30-7.83c-9.72-3.51-20.25,3.24-23.22,10.8C438.18,325.77,446.55,321.18,452.76,315.24Z" transform="translate(-136.31 -216.09)"/><path class="cls-2" d="M544.29,318.21c1.35,3.51-2.16,7.29-3.24,10l-3.24,7.56c4.59-2.7,9.45-4.86,14-7,11.61-5.94,23.76-14,36.45-17.55,9.18-2.43,15.39,4.05,9.72,13-3.24,4.86-7.29,8.64-11.07,13.23-1.62,1.89-8.1,8.1-8.91,11.88,5.13,1.35,15.93-3.51,19.71-5.13l11.07-4.86c3-1.62,10.26-6.21,13-6.21,3.24,0,3.24,4.32.27,6.21a100.23,100.23,0,0,1-10.8,5.13c-4.86,2.7-9.72,4.86-14.58,7.29-5.94,3-28.08,13.77-28.08-.81,0-7,7.83-11.88,11.88-16.47,2.16-1.62,8.91-8.91,10.26-13.77-9.72,1.08-20,5.67-28.35,10-10.53,5.13-22.41,11.07-30.78,19.71-3.24,2.7-9.45.54-7.83-4.86a8.85,8.85,0,0,1,4.05-4.32c1.89-2.7,4-7.56,4.59-8.37a35.63,35.63,0,0,0,1.89-8.1c-4,1.08-8.37,3-10.53,3.51-5.13,2.16-10.26,4.05-15.12,6.48-2.7,1.35-5.13,3-7.83,4.05-4.05,2.16-8.91-2.7-4.05-4.86C504.87,329.82,540,308.49,544.29,318.21Z" transform="translate(-136.31 -216.09)"/><path class="cls-2" d="M660.39,315.78a6.47,6.47,0,0,1,5.94,1.89c4,7.29-8.91,7.29-11.34,10.26-3.24,4.59,13.23,6.48,15.39,7.83,7.29,3.78,7.83,8.64,5.13,13.23l7.29-3.78,21.6-11.34c2.43-1.35,4.86.27,4.86,3s-4,3.78-6.48,4.86c-8.64,4.05-17.55,8.64-26.19,13.23-10.26,4.86-19.71,9.72-29.7,9.72-7.29,0-13.77-5.94-13.77-12.42-.54-6.48,8.91-8.37,9.45-1.62.54,7.29,7,7.83,14.58,5.94,4.86-1.89,9.45-4.86,11.34-7.29,9.45-10-13.23-10.53-17.82-14a7.63,7.63,0,0,1-2.7-8.64c-5.4,2.16-10.8,4.59-15.12,6.48-3.24,1.62-8.37,6.48-11.88,6.48-3.78.54-4.59-4.05-1.62-5.67C624.21,331.17,648.51,316.59,660.39,315.78Z" transform="translate(-136.31 -216.09)"/></g></g></svg>